<svg id="Capa_1" enable-background="new 0 0 512.078 512.078" height="512" viewBox="0 0 512.078 512.078" width="512" xmlns="http://www.w3.org/2000/svg"><g><g><g><path d="m354.677 314.852c-86.93 0-157.401-70.471-157.401-157.401s70.471-157.401 157.401-157.401 86.931 314.802 0 314.802z" fill="#fde53f"/><g><path d="m354.677.05v314.802c86.93 0 157.401-70.471 157.401-157.401s-70.47-157.401-157.401-157.401z" fill="#fed330"/></g></g><g><path d="m398.438 88.34v-24.157h-29.991v23.965h-26.995v-23.965h-29.991v23.965h-24.995v29.991h24.995v78.306h-24.995v29.991h24.995v23.964h29.991v-23.965h26.995v23.965h29.991v-24.157c21.344-2.006 38.104-20.017 38.104-41.877 0-10.305-3.73-19.752-9.904-27.074 6.173-7.323 9.904-16.769 9.904-27.074 0-21.861-16.76-39.873-38.104-41.878zm-3.966 29.798c6.66 0 12.079 5.419 12.079 12.079s-5.419 12.079-12.079 12.079h-53.02v-24.158zm0 78.306h-53.02v-24.158h53.02c6.66 0 12.079 5.419 12.079 12.079 0 6.661-5.419 12.079-12.079 12.079z" fill="#fd9e28"/><g><path d="m368.447 250.4h29.991v-24.157c21.344-2.006 38.104-20.017 38.104-41.877 0-10.305-3.73-19.752-9.904-27.074 6.173-7.323 9.904-16.769 9.904-27.074 0-21.86-16.76-39.872-38.104-41.877v-24.158h-29.991v23.965h-13.769v29.991h39.795c6.66 0 12.079 5.419 12.079 12.079s-5.419 12.079-12.079 12.079h-39.795v29.991h39.795c6.66 0 12.079 5.419 12.079 12.079s-5.419 12.079-12.079 12.079h-39.795v29.991h13.769z" fill="#fd8d34"/></g></g></g><g><path d="m0 482.387 107.492-35.914 174.457 65.554 229.895-47.37-1.209-5.042c-9.298-38.776-47.467-63.387-86.65-55.869l-124.907 23.996-243.57-96.837-55.508 18.922z" fill="#ffdfcf"/><path d="m55.508 330.907 48.207-17.052c32.305-11.427 67.781-9.915 98.995 4.221l101.62 46.019c17.103 7.745 24.724 27.851 17.048 44.977-7.627 17.017-27.522 24.749-44.649 17.354z" fill="#ffcebf"/></g></g></svg>