<svg height="512pt" viewBox="0 0 512 512" width="512pt" xmlns="http://www.w3.org/2000/svg"><path d="m0 121h482v391h-482zm0 0" fill="#7ed8f6"/><path d="m287 121h195v391h-195zm0 0" fill="#6aa9ff"/><path d="m512 60v121l-30 30h-390l-30-30v-121h120l15.902344-30 14.097656 30h90l17.699219-30 12.300781 30h90l12.300781-30 17.699219 30zm0 0" fill="#4a696f"/><path d="m512 60v121l-30 30h-195v-151h15l17.699219-30 12.300781 30h90l12.300781-30 17.699219 30zm0 0" fill="#384949"/><path d="m407 0c-24.8125 0-45 20.1875-45 45v61c0 24.8125 20.1875 45 45 45v-30c-8.277344 0-15-6.722656-15-15v-61c0-8.277344 6.722656-15 15-15s15 6.722656 15 15v15h30v-15c0-24.8125-20.1875-45-45-45zm0 0" fill="#f4d7af"/><path d="m332 45v15h-30v-15c0-8.402344-6.597656-15-15-15s-15 6.597656-15 15v61c0 8.402344 6.597656 15 15 15v30c-24.902344 0-45-20.097656-45-45v-61c0-24.902344 20.097656-45 45-45s45 20.097656 45 45zm0 0" fill="#faecd8"/><path d="m167 0c-24.8125 0-45 20.1875-45 45v61c0 24.8125 20.1875 45 45 45v-30c-8.277344 0-15-6.722656-15-15v-61c0-8.277344 6.722656-15 15-15s15 6.722656 15 15v15h30v-15c0-24.8125-20.1875-45-45-45zm0 0" fill="#faecd8"/><path d="m287 30v-30c24.902344 0 45 20.097656 45 45v15h-30v-15c0-8.402344-6.597656-15-15-15zm0 0" fill="#f4d7af"/><path d="m512 181v150l-90 30-30 90h-330v-270zm0 0" fill="#6aa9ff"/><path d="m512 181v150l-90 30-30 90h-105v-270zm0 0" fill="#4895ff"/><path d="m306.800781 330.398438c-7.203125.902343-14.101562-.597657-19.800781-4.199219-8.699219-5.101563-15-14.398438-15-25.199219 0-10.5 5.699219-20.402344 15-25.5.300781-.300781.601562-.601562 1.199219-.902344l27.601562-14.398437-28.5-12.601563h-.300781c-9.601562-4.496094-19.5-6.597656-30-6.597656-41.398438 0-75 33.601562-75 75s33.601562 75 75 75c10.5 0 20.699219-2.101562 30-6.300781 14.699219-6.597657 27-17.699219 35.097656-32.101563l15.300782-26.996094zm0 0" fill="#faecd8"/><path d="m332 271h30v30h-30zm0 0" fill="#f4d7af"/><path d="m512 331v120h-120l35.902344-95.902344zm0 0" fill="#6aa9ff"/><path d="m512 331-120 120v-120zm0 0" fill="#7ed8f6"/><g fill="#f4d7af"><path d="m288.199219 274.601562c-.597657.296876-.898438.597657-1.199219.898438v-27.902344h.300781l28.5 12.601563zm0 0"/><path d="m337.398438 325.601562-15.296876 26.996094c-8.101562 14.402344-20.402343 25.503906-35.101562 32.101563v-58.5c5.699219 3.601562 12.597656 5.101562 19.800781 4.199219zm0 0"/></g></svg>