<svg xmlns="http://www.w3.org/2000/svg" height="511pt" version="1.1" viewBox="1 -59 511.99998 511" width="511pt">
<g id="surface1">
<path d="M 65.828125 0.574219 C 41.355469 1.941406 21.941406 22.214844 21.941406 47.019531 L 21.941406 309.789062 L 433.632812 337.621094 L 481.699219 309.789062 L 481.699219 47.019531 C 481.699219 21.324219 460.875 0.5 435.179688 0.5 L 431.144531 0.5 Z M 65.828125 0.574219 " style=" stroke:none;fill-rule:nonzero;fill:rgb(90.196078%,90.196078%,90.196078%);fill-opacity:1;" />
<path d="M 36.570312 336.558594 L 36.570312 47.019531 C 36.570312 30.230469 49.589844 16.328125 66.277344 15.203125 L 435.179688 15.128906 C 452.765625 15.128906 467.070312 29.433594 467.070312 47.019531 L 467.070312 341.800781 L 430.164062 322.722656 Z M 36.570312 336.558594 " style=" stroke:none;fill-rule:nonzero;fill:rgb(25.882353%,75.294118%,88.627451%);fill-opacity:1;" />
<path d="M 512 309.789062 L 512 340.457031 C 512 350.039062 509.492188 359.023438 505.09375 366.808594 C 495.878906 383.132812 478.375 394.144531 458.3125 394.144531 L 53.6875 394.144531 C 24.03125 394.144531 0 370.113281 0 340.457031 L 0 309.789062 Z M 512 309.789062 " style=" stroke:none;fill-rule:nonzero;fill:rgb(80%,80%,80%);fill-opacity:1;" />
<path d="M 512 309.789062 L 512 340.457031 C 512 350.039062 509.492188 359.023438 505.09375 366.808594 C 500.203125 368.28125 495.019531 369.066406 489.660156 369.066406 L 85.035156 369.066406 C 55.378906 369.066406 31.347656 345.035156 31.347656 315.378906 L 31.347656 309.789062 Z M 512 309.789062 " style=" stroke:none;fill-rule:nonzero;fill:rgb(90.196078%,90.196078%,90.196078%);fill-opacity:1;" />
<path d="M 274.171875 351.96875 L 210.660156 351.96875 C 196.074219 351.96875 184.25 340.144531 184.25 325.558594 L 184.25 309.789062 L 300.582031 309.789062 L 300.582031 325.558594 C 300.582031 340.144531 288.757812 351.96875 274.171875 351.96875 Z M 274.171875 351.96875 " style=" stroke:none;fill-rule:nonzero;fill:rgb(100%,100%,100%);fill-opacity:1;" />
<path d="M 99.761719 162.976562 L 166.070312 119.902344 C 167.375 118.859375 169.203125 118.597656 171.027344 118.597656 C 178.859375 118.597656 188.78125 126.953125 188.78125 137.65625 C 188.78125 142.09375 186.953125 146.007812 184.082031 147.835938 L 138.136719 177.59375 L 184.082031 207.355469 C 186.953125 209.183594 188.78125 213.097656 188.78125 217.535156 C 188.78125 228.238281 178.859375 236.59375 171.027344 236.59375 C 169.199219 236.59375 167.371094 236.332031 166.066406 235.289062 L 99.761719 192.214844 C 93.757812 188.296875 91.667969 182.035156 91.667969 177.59375 C 91.667969 173.15625 93.757812 166.890625 99.761719 162.976562 Z M 99.761719 162.976562 " style=" stroke:none;fill-rule:nonzero;fill:rgb(24.313725%,29.411765%,36.078431%);fill-opacity:1;" />
<path d="M 321.917969 62.210938 C 321.917969 63.777344 321.65625 65.605469 320.875 67.171875 L 228.984375 255.386719 C 227.15625 259.304688 222.195312 261.914062 217.238281 261.914062 C 208.363281 261.914062 202.617188 254.605469 202.617188 248.078125 C 202.617188 246.511719 203.140625 244.683594 203.921875 243.117188 L 295.550781 54.902344 C 297.640625 50.464844 301.816406 48.375 306.515625 48.375 C 313.824219 48.375 321.917969 53.859375 321.917969 62.210938 Z M 321.917969 62.210938 " style=" stroke:none;fill-rule:nonzero;fill:rgb(24.313725%,29.411765%,36.078431%);fill-opacity:1;" />
<path d="M 403.878906 192.214844 L 337.574219 235.285156 C 336.265625 236.332031 334.441406 236.59375 332.613281 236.59375 C 324.78125 236.59375 314.863281 228.238281 314.863281 217.535156 C 314.863281 213.097656 316.691406 209.183594 319.5625 207.355469 L 365.507812 177.59375 L 319.5625 147.835938 C 316.691406 146.007812 314.863281 142.09375 314.863281 137.65625 C 314.863281 126.953125 324.78125 118.597656 332.613281 118.597656 C 334.441406 118.597656 336.269531 118.859375 337.574219 119.902344 L 403.878906 162.976562 C 409.882812 166.894531 411.972656 173.15625 411.972656 177.59375 C 411.972656 182.035156 409.882812 188.296875 403.878906 192.214844 Z M 403.878906 192.214844 " style=" stroke:none;fill-rule:nonzero;fill:rgb(24.313725%,29.411765%,36.078431%);fill-opacity:1;" />
</g>
</svg>