<svg height="512pt" viewBox="0 0 512 512" width="512pt" xmlns="http://www.w3.org/2000/svg"><path d="m453.066406 423.882812c0 48.664063-39.453125 88.117188-88.117187 88.117188-48.664063 0-88.117188-39.453125-88.117188-88.117188 0-48.664062 39.453125-88.117187 88.117188-88.117187 48.664062 0 88.117187 39.453125 88.117187 88.117187zm0 0" fill="#f7ef87"/><path d="m439.136719 471.40625c-101.121094 14.367188-128.304688-84.667969-88.59375-134.449219-41.808594 6.878907-73.710938 43.167969-73.710938 86.925781 0 48.667969 39.449219 88.117188 88.117188 88.117188 31.15625 0 58.519531-16.1875 74.1875-40.59375zm0 0" fill="#efd176"/><g fill="#4e5660"><path d="m397.605469 457.425781h-65.3125c-4.140625 0-7.5-3.359375-7.5-7.5 0-4.144531 3.359375-7.5 7.5-7.5h65.3125c4.140625 0 7.5 3.355469 7.5 7.5 0 4.140625-3.359375 7.5-7.5 7.5zm0 0"/><path d="m397.605469 431.382812h-65.3125c-4.140625 0-7.5-3.359374-7.5-7.5 0-4.140624 3.359375-7.5 7.5-7.5h65.3125c4.140625 0 7.5 3.359376 7.5 7.5 0 4.140626-3.359375 7.5-7.5 7.5zm0 0"/><path d="m397.605469 405.34375h-65.3125c-4.140625 0-7.5-3.359375-7.5-7.5 0-4.144531 3.359375-7.5 7.5-7.5h65.3125c4.140625 0 7.5 3.355469 7.5 7.5 0 4.140625-3.359375 7.5-7.5 7.5zm0 0"/></g><path d="m292.175781 373.292969c-37.53125 0-72.816406-14.613281-99.355469-41.152344l-12.894531-12.898437c-13.957031-13.957032-13.957031-36.585938 0-50.542969 13.957031-13.960938 36.589844-13.960938 50.546875 0l12.898438 12.894531c13.035156 13.039062 30.371094 20.21875 48.804687 20.21875 18.4375 0 35.773438-7.179688 48.808594-20.21875l79.382813-79.378906c13.035156-13.039063 20.214843-30.371094 20.214843-48.808594s-7.179687-35.773438-20.214843-48.808594l-12.898438-12.898437c-13.035156-13.039063-30.371094-20.21875-48.804688-20.21875-18.441406 0-35.773437 7.179687-48.808593 20.21875-13.960938 13.957031-36.589844 13.957031-50.546875 0-13.957032-13.957031-13.957032-36.585938 0-50.546875 26.539062-26.535156 61.820312-41.152344 99.351562-41.152344s72.816406 14.613281 99.355469 41.152344l12.894531 12.898437c54.785156 54.785157 54.785156 143.925781 0 198.710938l-79.382812 79.378906c-26.535156 26.539063-61.820313 41.152344-99.351563 41.152344zm0 0" fill="#a3defe"/><path d="m390.367188 232.214844-49.382813 49.378906c-13.035156 13.039062-30.371094 20.21875-48.804687 20.21875-6.515626 0-12.886719-.914062-18.984376-2.648438-1.414062 8.296876-5.335937 15.9375-11.410156 22.011719l-35.683594 35.6875c20.09375 10.734375 42.648438 16.429688 66.078126 16.429688 37.53125 0 72.8125-14.613281 99.351562-41.152344l6.464844-6.464844c2.1875-10.910156 3.3125-22.117187 3.3125-33.5 0-20.820312-3.757813-41.066406-10.941406-59.960937zm0 0" fill="#7acefa"/><path d="m153.339844 512c-35.984375 0-71.964844-13.695312-99.355469-41.089844l-12.894531-12.894531c-54.785156-54.785156-54.785156-143.925781 0-198.707031l79.378906-79.382813c54.785156-54.785156 143.925781-54.785156 198.707031 0l12.898438 12.894531c26.539062 26.539063 41.152343 61.824219 41.152343 99.355469s-14.613281 72.816407-41.152343 99.351563l-79.378907 79.382812c-27.394531 27.394532-63.375 41.089844-99.355468 41.089844zm66.484375-301.746094c-18.4375 0-35.773438 7.179688-48.808594 20.21875l-79.382813 79.382813c-26.910156 26.910156-26.910156 70.703125 0 97.617187l12.898438 12.894532c13.035156 13.039062 30.371094 20.21875 48.808594 20.21875s35.769531-7.179688 48.808594-20.21875l79.378906-79.382813c13.039062-13.035156 20.21875-30.367187 20.21875-48.804687s-7.179688-35.773438-20.21875-48.808594l-12.894532-12.898438c-13.039062-13.039062-30.371093-20.21875-48.808593-20.21875zm0 0" fill="#8eafe2"/><path d="m259.609375 463.996094c-24.050781-13.050782-41.964844-28.402344-55.46875-45.621094l-1.992187 1.992188c-13.039063 13.035156-30.375 20.21875-48.808594 20.21875-18.4375 0-35.773438-7.183594-48.808594-20.21875l-12.898438-12.898438c-26.910156-26.910156-26.910156-70.703125 0-97.617188l79.382813-79.378906c13.039063-13.039062 30.371094-20.21875 48.808594-20.21875 6.519531 0 12.898437.917969 19.003906 2.652344 1.382813-8.066406 5.171875-15.800781 11.386719-22.015625l35.640625-35.644531c-53.121094-28.238282-120.6875-20.019532-165.386719 24.679687l-79.382812 79.382813c-54.78125 54.78125-54.78125 143.921875 0 198.707031l12.898437 12.894531c27.390625 27.394532 63.371094 41.089844 99.355469 41.089844 35.980468 0 71.960937-13.695312 99.351562-41.089844zm0 0" fill="#6a96d7"/><path d="m53.640625 325.714844c-4.144531 0-7.5-3.359375-7.5-7.5v-21.933594c0-4.144531 3.355469-7.5 7.5-7.5 4.140625 0 7.5 3.355469 7.5 7.5v21.933594c0 4.140625-3.359375 7.5-7.5 7.5zm0 0" fill="#8eafe2"/><path d="m33.8125 366.75c-4.140625 0-7.5-3.355469-7.5-7.5v-12.027344c0-4.140625 3.359375-7.5 7.5-7.5 4.144531 0 7.5 3.359375 7.5 7.5v12.027344c0 4.144531-3.355469 7.5-7.5 7.5zm0 0" fill="#8eafe2"/><path d="m205.199219 329.710938c-9.148438 0-18.292969-3.488282-25.273438-10.46875-54.785156-54.78125-54.785156-143.921876 0-198.707032l79.382813-79.382812c13.957031-13.957032 36.585937-13.957032 50.546875.003906 13.957031 13.957031 13.957031 36.585938-.003907 50.542969l-79.378906 79.382812c-26.914062 26.910157-26.914062 70.703125 0 97.617188 13.957032 13.957031 13.957032 36.585937 0 50.546875-6.980468 6.976562-16.125 10.464844-25.273437 10.464844zm0 0" fill="#a3defe"/><path d="m477.363281 176.519531c-4.140625 0-7.5-3.355469-7.5-7.5v-21.566406c0-4.140625 3.359375-7.5 7.5-7.5 4.144531 0 7.5 3.359375 7.5 7.5v21.566406c0 4.144531-3.355469 7.5-7.5 7.5zm0 0" fill="#7acefa"/></svg>