<?xml version="1.0" encoding="iso-8859-1"?>
<!-- Generator: Adobe Illustrator 19.0.0, SVG Export Plug-In . SVG Version: 6.00 Build 0)  -->
<svg version="1.1" id="Capa_1" xmlns="http://www.w3.org/2000/svg" xmlns:xlink="http://www.w3.org/1999/xlink" x="0px" y="0px"
	 viewBox="0 0 512 512" style="enable-background:new 0 0 512 512;" xml:space="preserve">
<circle style="fill:#FFD23C;" cx="256" cy="256" r="256"/>
<path style="fill:#FFA50A;" d="M99.528,139.103v233.794l138.464,138.464C243.942,511.774,249.944,512,256,512
	c141.385,0,256-114.615,256-256c0-6.055-0.226-12.057-0.639-18.008l-98.889-98.889h-93.555l-32.746-32.746L99.528,139.103z"/>
<g>
	<polygon style="fill:#FF640A;" points="286.17,405.643 99.528,372.897 99.528,139.103 286.17,106.357 	"/>
	<rect x="295.25" y="139.1" style="fill:#FF640A;" width="117.22" height="233.79"/>
</g>
<g>
	<path style="fill:#FFFFFF;" d="M159.326,296.171v-84.547h35.843c15.388,0,26.913,14.167,26.913,28.103
		c0,14.556-10.847,28.103-26.317,28.103h-20.006v28.341H159.326z M175.759,253.421h19.053c6.893,0,10.599-6.428,10.599-13.694
		c0-7.165-4.166-13.694-11.313-13.694h-18.339L175.759,253.421L175.759,253.421z"/>
	<path style="fill:#FFFFFF;" d="M333.03,161.204c-18.256,0-33.055,14.799-33.055,33.055s14.799,33.055,33.055,33.055
		c18.079,0,32.758-14.515,33.042-32.526H333.03V161.204z"/>
	<path style="fill:#FFFFFF;" d="M339.902,158.066v29.698h27.88c0.025-0.487,0.038-0.977,0.038-1.469
		C367.821,170.807,355.349,158.238,339.902,158.066z"/>
	<rect x="295.25" y="242.6" style="fill:#FFFFFF;" width="80.05" height="13.399"/>
	<rect x="295.25" y="266.1" style="fill:#FFFFFF;" width="80.05" height="13.399"/>
	<rect x="295.25" y="289.59" style="fill:#FFFFFF;" width="80.05" height="13.399"/>
	<rect x="295.25" y="313.08" style="fill:#FFFFFF;" width="80.05" height="13.399"/>
</g>
<g>
</g>
<g>
</g>
<g>
</g>
<g>
</g>
<g>
</g>
<g>
</g>
<g>
</g>
<g>
</g>
<g>
</g>
<g>
</g>
<g>
</g>
<g>
</g>
<g>
</g>
<g>
</g>
<g>
</g>
</svg>
