<?xml version="1.0" encoding="iso-8859-1"?>
<!-- Generator: Adobe Illustrator 19.0.0, SVG Export Plug-In . SVG Version: 6.00 Build 0)  -->
<svg version="1.1" id="Layer_1" xmlns="http://www.w3.org/2000/svg" xmlns:xlink="http://www.w3.org/1999/xlink" x="0px" y="0px"
	 viewBox="0 0 511.999 511.999" style="enable-background:new 0 0 511.999 511.999;" xml:space="preserve">
<path style="fill:#FF9737;" d="M310.641,387.709c-0.816-2.159-2.885-3.587-5.192-3.587H206.55c-2.309,0-4.375,1.428-5.194,3.587
	c-4.157,10.99-6.266,22.565-6.266,34.405c0,38.873,23.042,73.976,58.701,89.428c0.705,0.305,1.457,0.457,2.208,0.457
	c0.752,0,1.504-0.152,2.208-0.457c35.66-15.452,58.701-50.554,58.701-89.428C316.909,410.27,314.8,398.695,310.641,387.709z"/>
<path style="fill:#FFD960;" d="M292.446,380.352c-1.052-1.136-2.528-1.782-4.076-1.782h-64.742c-1.548,0-3.025,0.645-4.076,1.782
	c-1.049,1.135-1.579,2.659-1.459,4.202c1.681,21.554,15.743,40.738,35.824,48.871c0.668,0.271,1.376,0.406,2.084,0.406
	c0.708,0,1.416-0.135,2.084-0.406c20.08-8.133,34.14-27.316,35.822-48.871C294.024,383.01,293.495,381.487,292.446,380.352z"/>
<path style="opacity:0.1;fill:#231F20;enable-background:new    ;" d="M213.598,428.947c0-12.774,2.275-25.264,6.763-37.122
	c0.883-2.33,3.113-3.87,5.603-3.87h84.765c-0.03-0.081-0.056-0.164-0.087-0.246c-0.816-2.159-2.885-3.587-5.192-3.587h-98.899
	c-2.309,0-4.375,1.428-5.194,3.587c-4.157,10.99-6.266,22.565-6.266,34.405c0,38.752,22.902,73.752,58.37,89.277
	C228.653,491.753,213.598,461.585,213.598,428.947z"/>
<g>
	<path style="fill:#3A5D74;" d="M420.78,396.97v-51.543c0-22.857-11.084-37.559-14.882-41.925l-76.866-83.428v152.156l80.955,37.293
		C413.007,410.695,420.78,412.236,420.78,396.97z"/>
	<path style="fill:#3A5D74;" d="M91.219,396.97v-51.543c0-22.857,11.084-37.559,14.882-41.925l76.866-83.428v152.156l-80.953,37.293
		C98.992,410.695,91.219,412.236,91.219,396.97z"/>
</g>
<path style="fill:#90C8EC;" d="M255.999,103.143c-4.599,0-8.328-3.729-8.328-8.328V8.328c0-4.599,3.729-8.328,8.328-8.328
	s8.328,3.729,8.328,8.328v86.487C264.327,99.414,260.598,103.143,255.999,103.143z"/>
<path style="fill:#CAE9F7;" d="M263.525,49.363h-15.052c-37.406,0-67.728,30.323-67.728,67.727v255.14
	c0,10.247,8.306,18.555,18.557,18.555h113.395c10.248,0,18.557-8.308,18.557-18.555V170.738v-27.205v-26.444
	C331.253,79.685,300.931,49.363,263.525,49.363z"/>
<path style="fill:#90C8EC;" d="M180.746,345.426v26.803c0,10.247,8.306,18.555,18.557,18.555h113.395
	c10.248,0,18.557-8.308,18.557-18.555v-26.803H180.746z"/>
<circle style="fill:#3A5D74;" cx="256" cy="269.137" r="32.988"/>
<g>
	<path style="opacity:0.1;fill:#231F20;enable-background:new    ;" d="M109.726,405.405v-51.543
		c0-22.857,11.084-37.559,14.882-41.925l58.358-63.341v-28.523l-76.866,83.428c-3.798,4.365-14.882,19.067-14.882,41.925v51.543
		c0,15.265,7.773,13.725,10.795,12.552l7.722-3.558C109.733,405.777,109.726,405.598,109.726,405.405z"/>
	<path style="opacity:0.1;fill:#231F20;enable-background:new    ;" d="M199.253,372.229v-255.14c0-36.824,29.397-66.763,66-67.682
		c-0.576-0.014-1.147-0.044-1.728-0.044h-15.052c-37.406,0-67.728,30.323-67.728,67.727v255.14c0,10.247,8.306,18.555,18.557,18.555
		h18.508C207.559,390.784,199.253,382.477,199.253,372.229z"/>
	<path style="opacity:0.1;fill:#231F20;enable-background:new    ;" d="M241.519,269.141c0-15.005,10.021-27.662,23.733-31.664
		c-2.937-0.856-6.04-1.325-9.253-1.325c-18.22,0-32.988,14.769-32.988,32.989c0,18.219,14.768,32.988,32.988,32.988
		c3.214,0,6.316-0.467,9.253-1.325C251.539,296.802,241.519,284.146,241.519,269.141z"/>
</g>
<g>
</g>
<g>
</g>
<g>
</g>
<g>
</g>
<g>
</g>
<g>
</g>
<g>
</g>
<g>
</g>
<g>
</g>
<g>
</g>
<g>
</g>
<g>
</g>
<g>
</g>
<g>
</g>
<g>
</g>
</svg>
