<?xml version="1.0" encoding="iso-8859-1"?>
<!-- Generator: Adobe Illustrator 19.0.0, SVG Export Plug-In . SVG Version: 6.00 Build 0)  -->
<svg version="1.1" id="Layer_1" xmlns="http://www.w3.org/2000/svg" xmlns:xlink="http://www.w3.org/1999/xlink" x="0px" y="0px"
	 viewBox="0 0 512 512" style="enable-background:new 0 0 512 512;" xml:space="preserve">
<path style="fill:#464655;" d="M494.345,419.31H17.655C7.904,419.31,0,411.406,0,401.655V83.862c0-9.751,7.904-17.655,17.655-17.655
	h476.69c9.751,0,17.655,7.904,17.655,17.655v317.793C512,411.406,504.096,419.31,494.345,419.31z"/>
<rect x="26.483" y="92.69" style="fill:#959CB3;" width="459.034" height="247.172"/>
<path style="fill:#C7CFE2;" d="M0,366.345v35.31c0,9.751,7.904,17.655,17.655,17.655h476.69c9.751,0,17.655-7.904,17.655-17.655
	v-35.31H0z"/>
<polygon style="fill:#AFB9D2;" points="326.621,489.931 185.379,489.931 194.207,419.31 317.793,419.31 "/>
<g>
	<polygon style="fill:#959CB3;" points="320,436.966 317.793,419.31 194.207,419.31 192,436.966 	"/>
	<circle style="fill:#959CB3;" cx="256" cy="392.828" r="13.241"/>
</g>
<path style="fill:#C7CFE2;" d="M326.621,498.759H185.379c-4.875,0-8.828-3.953-8.828-8.828l0,0c0-4.875,3.953-8.828,8.828-8.828
	h141.241c4.875,0,8.828,3.953,8.828,8.828l0,0C335.448,494.806,331.496,498.759,326.621,498.759z"/>
<path style="fill:#EFF2FA;" d="M423.724,339.862H88.276V22.069c0-4.875,3.953-8.828,8.828-8.828h317.793
	c4.875,0,8.828,3.953,8.828,8.828V339.862z"/>
<path style="fill:#F7ABAF;" d="M388.414,119.172H123.586c-4.875,0-8.828-3.953-8.828-8.828V48.552c0-4.875,3.953-8.828,8.828-8.828
	h264.828c4.875,0,8.828,3.953,8.828,8.828v61.793C397.241,115.22,393.289,119.172,388.414,119.172z"/>
<path style="fill:#FF6464;" d="M384,172.138H128c-7.313,0-13.241-5.929-13.241-13.241l0,0c0-7.313,5.929-13.241,13.241-13.241h256
	c7.313,0,13.241,5.929,13.241,13.241l0,0C397.241,166.209,391.313,172.138,384,172.138z"/>
<g>
	<path style="fill:#AFB9D2;" d="M388.414,216.276H273.655c-4.875,0-8.828-3.953-8.828-8.828l0,0c0-4.875,3.953-8.828,8.828-8.828
		h114.759c4.875,0,8.828,3.953,8.828,8.828l0,0C397.241,212.323,393.289,216.276,388.414,216.276z"/>
	<path style="fill:#AFB9D2;" d="M238.345,216.276H123.586c-4.875,0-8.828-3.953-8.828-8.828l0,0c0-4.875,3.953-8.828,8.828-8.828
		h114.759c4.875,0,8.828,3.953,8.828,8.828l0,0C247.172,212.323,243.22,216.276,238.345,216.276z"/>
</g>
<g>
	<path style="fill:#C7CFE2;" d="M388.414,251.586H273.655c-4.875,0-8.828-3.953-8.828-8.828l0,0c0-4.875,3.953-8.828,8.828-8.828
		h114.759c4.875,0,8.828,3.953,8.828,8.828l0,0C397.241,247.634,393.289,251.586,388.414,251.586z"/>
	<path style="fill:#C7CFE2;" d="M238.345,251.586H123.586c-4.875,0-8.828-3.953-8.828-8.828l0,0c0-4.875,3.953-8.828,8.828-8.828
		h114.759c4.875,0,8.828,3.953,8.828,8.828l0,0C247.172,247.634,243.22,251.586,238.345,251.586z"/>
	<path style="fill:#C7CFE2;" d="M388.414,286.897H273.655c-4.875,0-8.828-3.953-8.828-8.828l0,0c0-4.875,3.953-8.828,8.828-8.828
		h114.759c4.875,0,8.828,3.953,8.828,8.828l0,0C397.241,282.944,393.289,286.897,388.414,286.897z"/>
	<path style="fill:#C7CFE2;" d="M388.414,322.207H273.655c-4.875,0-8.828-3.953-8.828-8.828l0,0c0-4.875,3.953-8.828,8.828-8.828
		h114.759c4.875,0,8.828,3.953,8.828,8.828l0,0C397.241,318.254,393.289,322.207,388.414,322.207z"/>
	<path style="fill:#C7CFE2;" d="M238.345,286.897H123.586c-4.875,0-8.828-3.953-8.828-8.828l0,0c0-4.875,3.953-8.828,8.828-8.828
		h114.759c4.875,0,8.828,3.953,8.828,8.828l0,0C247.172,282.944,243.22,286.897,238.345,286.897z"/>
</g>
<path style="fill:#E4EAF6;" d="M247.172,339.862H114.759v-27.018c0-4.579,3.712-8.292,8.292-8.292h115.83
	c4.579,0,8.292,3.712,8.292,8.292v27.018H247.172z"/>
<rect x="406.069" y="251.586" style="fill:#FF6464;" width="35.31" height="220.69"/>
<rect x="406.069" y="251.586" style="fill:#D2555A;" width="17.655" height="220.69"/>
<path style="fill:#FFE6A1;" d="M406.069,251.586l15.086-60.344c0.669-2.675,4.47-2.675,5.139,0l15.085,60.344H406.069z"/>
<path style="fill:#FF6464;" d="M421.155,191.242l-6.259,25.034h17.655l-6.259-25.034
	C425.624,188.567,421.824,188.567,421.155,191.242z"/>
<path style="fill:#FFE6A1;" d="M432.552,498.759h-17.655c-4.875,0-8.828-3.953-8.828-8.828v-17.655h35.31v17.655
	C441.379,494.806,437.427,498.759,432.552,498.759z"/>
<path style="fill:#FFDC9B;" d="M423.724,489.931v-17.655h-17.655v17.655c0,4.875,3.953,8.828,8.828,8.828h17.655
	C427.677,498.759,423.724,494.806,423.724,489.931z"/>
<g>
</g>
<g>
</g>
<g>
</g>
<g>
</g>
<g>
</g>
<g>
</g>
<g>
</g>
<g>
</g>
<g>
</g>
<g>
</g>
<g>
</g>
<g>
</g>
<g>
</g>
<g>
</g>
<g>
</g>
</svg>
