<?xml version="1.0" encoding="iso-8859-1"?>
<!-- Generator: Adobe Illustrator 19.0.0, SVG Export Plug-In . SVG Version: 6.00 Build 0)  -->
<svg version="1.1" id="Layer_1" xmlns="http://www.w3.org/2000/svg" xmlns:xlink="http://www.w3.org/1999/xlink" x="0px" y="0px"
	 viewBox="0 0 512 512" style="enable-background:new 0 0 512 512;" xml:space="preserve">
<polygon style="fill:#ECECED;" points="425.432,512 86.568,512 86.568,252.932 256,64.022 425.432,252.932 "/>
<g>
	<polygon style="fill:#D7D7D7;" points="425.432,512 256,512 256,50.087 425.432,252.932 	"/>
	<polygon style="fill:#D7D7D7;" points="256,21.655 51.96,259.061 77.242,280.872 256,72.884 434.758,280.872 460.04,259.061 	"/>
</g>
<polygon style="fill:#B0B0B0;" points="256,21.655 256,72.884 434.758,280.872 460.04,259.061 "/>
<path style="fill:#B5E45F;" d="M359.775,321.412v-33.391h-21.342v-19.846h-19.846v-21.341h-33.391v21.341h-12.501v-21.341h-33.391
	v21.341h-12.501v-21.341h-33.391v21.341h-19.846v19.846h-21.341v33.391h21.341v14.64h-21.341v33.391h21.341v10.362h-21.341v33.391
	h21.341v19.846h19.846v21.342h33.391v-21.342h12.501v21.342h33.391v-21.342h12.501v21.342h33.391v-21.342h19.846v-19.846h21.342
	v-33.391h-21.342v-12.502h21.342v-33.391h-21.342v-12.501H359.775z"/>
<g>
	<polygon style="fill:#7DBB4E;" points="359.775,321.412 359.775,288.021 338.434,288.021 338.434,268.176 318.588,268.176 
		318.588,246.834 285.196,246.834 285.196,268.176 272.696,268.176 272.696,246.834 256,246.834 256,454.383 272.696,454.383 
		272.696,433.042 285.196,433.042 285.196,454.383 318.588,454.383 318.588,433.042 338.434,433.042 338.434,413.196 
		359.775,413.196 359.775,379.805 338.434,379.805 338.434,367.304 359.775,367.304 359.775,333.913 338.434,333.913 
		338.434,321.412 	"/>
	<rect x="206.959" y="301.568" style="fill:#7DBB4E;" width="98.081" height="98.081"/>
</g>
<rect x="256" y="301.568" style="fill:#588D3F;" width="49.041" height="98.081"/>
<g>
	<path style="fill:#92E5EA;" d="M287.713,170.483c-8.47-8.47-19.733-13.135-31.713-13.135c-11.98,0-23.241,4.665-31.712,13.135
		l-23.612-23.611c14.777-14.777,34.424-22.915,55.324-22.915c20.898,0,40.546,8.139,55.324,22.915L287.713,170.483z"/>
	<path style="fill:#92E5EA;" d="M375.363,82.833C343.479,50.95,301.088,33.391,256,33.391S168.521,50.95,136.637,82.833
		l-23.611-23.611C151.217,21.032,201.993,0,256,0s104.783,21.032,142.974,59.222L375.363,82.833z"/>
	<path style="fill:#92E5EA;" d="M331.538,126.658C311.361,106.482,284.534,95.37,256,95.37s-55.361,11.112-75.537,31.288
		l-23.611-23.611C183.335,76.563,218.547,61.979,256,61.979s72.665,14.585,99.149,41.068L331.538,126.658z"/>
</g>
<g>
	<path style="fill:#79BBBC;" d="M287.713,170.483l23.611-23.611c-14.777-14.778-34.425-22.915-55.324-22.915v33.391
		C267.98,157.348,279.241,162.013,287.713,170.483z"/>
	<path style="fill:#79BBBC;" d="M398.974,59.222C360.783,21.032,310.007,0,256,0v33.391c45.088,0,87.479,17.558,119.363,49.441
		L398.974,59.222z"/>
	<path style="fill:#79BBBC;" d="M331.538,126.658l23.611-23.612C328.665,76.563,293.453,61.979,256,61.979V95.37
		C284.534,95.37,311.361,106.482,331.538,126.658z"/>
</g>
<g>
</g>
<g>
</g>
<g>
</g>
<g>
</g>
<g>
</g>
<g>
</g>
<g>
</g>
<g>
</g>
<g>
</g>
<g>
</g>
<g>
</g>
<g>
</g>
<g>
</g>
<g>
</g>
<g>
</g>
</svg>
