<svg id="Capa_1" enable-background="new 0 0 512 512" height="512" viewBox="0 0 512 512" width="512" xmlns="http://www.w3.org/2000/svg"><g><path d="m45 452c-8.284 0-15-6.716-15-15v-50c0-6.639 4.365-12.489 10.729-14.379l101-30c7.939-2.36 16.291 2.167 18.65 10.108s-2.167 16.292-10.108 18.65l-90.271 26.813v38.808c0 8.284-6.716 15-15 15z" fill="#7dd5f4"/><path d="m158.257 260.875c-.819 0-1.649-.067-2.484-.207l-113.239-18.872c-7.233-1.206-12.534-7.463-12.534-14.796v-40c0-8.284 6.716-15 15-15s15 6.716 15 15v27.293l100.705 16.784c8.172 1.362 13.692 9.09 12.33 17.262-1.223 7.337-7.578 12.536-14.778 12.536z" fill="#7dd5f4"/><path d="m467 452c-8.284 0-15-6.716-15-15v-38.808l-90.271-26.813c-7.94-2.358-12.467-10.708-10.107-18.65 2.359-7.94 10.704-12.468 18.65-10.108l101 30c6.364 1.89 10.728 7.74 10.728 14.379v50c0 8.284-6.716 15-15 15z" fill="#0fa7da"/><path d="m353.743 260.875c-7.201 0-13.556-5.199-14.778-12.537-1.362-8.171 4.158-15.9 12.33-17.262l100.705-16.783v-27.293c0-8.284 6.716-15 15-15s15 6.716 15 15v40c0 7.333-5.301 13.59-12.534 14.796l-113.239 18.873c-.834.139-1.665.206-2.484.206z" fill="#0fa7da"/><path d="m256 157-125 113.636v136.364c0 8.284 6.716 15 15 15h220c8.284 0 15-6.716 15-15v-136.364z" fill="#f6f9f9"/><path d="m366 422c8.284 0 15-6.716 15-15v-136.364l-125-113.636v265z" fill="#dadfe7"/><path d="m301 422h-90v-105c0-8.284 6.716-15 15-15h60c8.284 0 15 6.716 15 15z" fill="#dadfe7"/><path d="m286 302h-30v120h45v-105c0-8.284-6.716-15-15-15z" fill="#c6d0da"/><path d="m330.246 30.704c-40.94-40.939-107.554-40.938-148.492 0-5.858 5.858-5.858 15.355 0 21.213 2.929 2.929 6.768 4.394 10.606 4.394s7.678-1.464 10.606-4.394c29.242-29.242 76.824-29.242 106.066 0 5.857 5.858 15.355 5.858 21.213 0 5.859-5.858 5.859-15.355.001-21.213z" fill="#c8ffff"/><path d="m224.18 73.131c-5.858 5.858-5.858 15.355 0 21.213 5.857 5.858 15.355 5.858 21.213 0 2.833-2.833 6.6-4.394 10.606-4.394s7.774 1.561 10.607 4.394c2.929 2.929 6.768 4.394 10.606 4.394s7.678-1.464 10.606-4.394c5.858-5.858 5.858-15.355 0-21.213-17.545-17.546-46.093-17.545-63.638 0z" fill="#c8ffff"/><path d="m277.213 98.738c3.839 0 7.678-1.464 10.606-4.394 5.858-5.858 5.858-15.355 0-21.213-8.773-8.773-20.296-13.159-31.819-13.159v29.979c4.006 0 7.774 1.561 10.606 4.394 2.929 2.928 6.768 4.393 10.607 4.393z" fill="#98f9ff"/><path d="m241 332h30v90h-30z" fill="#c8ffff"/><path d="m271 272h-30c-8.284 0-15-6.716-15-15s6.716-15 15-15h30c8.284 0 15 6.716 15 15s-6.716 15-15 15z" fill="#c8ffff"/><path d="m45 512c-24.813 0-45-20.187-45-45s20.187-45 45-45 45 20.187 45 45-20.187 45-45 45z" fill="#00429b"/><path d="m45 202c-24.813 0-45-20.187-45-45s20.187-45 45-45 45 20.187 45 45-20.187 45-45 45z" fill="#00429b"/><path d="m467 512c-24.813 0-45-20.187-45-45s20.187-45 45-45 45 20.187 45 45-20.187 45-45 45z" fill="#00337a"/><path d="m467 202c-24.813 0-45-20.187-45-45s20.187-45 45-45 45 20.187 45 45-20.187 45-45 45z" fill="#00337a"/><path d="m395.996 299.273c-3.601 0-7.212-1.288-10.086-3.901l-129.91-118.1-129.91 118.1c-6.13 5.572-15.617 5.121-21.189-1.009-5.573-6.13-5.121-15.617 1.009-21.189l140-127.273c5.721-5.2 14.459-5.201 20.18 0l140 127.273c6.13 5.573 6.582 15.06 1.009 21.189-2.959 3.256-7.025 4.91-11.103 4.91z" fill="#ff8493"/><path d="m256 332h15v90h-15z" fill="#98f9ff"/><path d="m271 242h-15v30h15c8.284 0 15-6.716 15-15s-6.716-15-15-15z" fill="#98f9ff"/><path d="m385.91 295.372c2.874 2.613 6.485 3.901 10.086 3.901 4.078 0 8.144-1.654 11.103-4.91 5.573-6.13 5.121-15.617-1.009-21.189l-140-127.273c-2.861-2.601-6.475-3.901-10.09-3.901v35.272z" fill="#e20059"/><path d="m330.246 51.917c5.858-5.858 5.858-15.355 0-21.213-20.47-20.469-47.358-30.704-74.246-30.704v29.986c19.206 0 38.412 7.311 53.033 21.932 5.858 5.858 15.356 5.858 21.213-.001z" fill="#98f9ff"/></g></svg>