<?xml version="1.0" encoding="iso-8859-1"?>
<!-- Generator: Adobe Illustrator 19.0.0, SVG Export Plug-In . SVG Version: 6.00 Build 0)  -->
<svg version="1.1" id="Layer_1" xmlns="http://www.w3.org/2000/svg" xmlns:xlink="http://www.w3.org/1999/xlink" x="0px" y="0px"
	 viewBox="0 0 512 512" style="enable-background:new 0 0 512 512;" xml:space="preserve">
<circle style="fill:#366796;" cx="256" cy="256" r="256"/>
<path style="fill:#263A7A;" d="M503.322,189.736l-81.513-81.605L258.872,234.892l-123.13,181.924l93.915,93.842
	c8.661,0.884,17.448,1.341,26.341,1.341c141.384,0,256-114.616,256-256C512,233.082,508.971,210.873,503.322,189.736z"/>
<circle style="fill:#FFEDB5;" cx="203.128" cy="350.522" r="94.527"/>
<g>
	<circle style="fill:#386895;" cx="193.974" cy="332.731" r="8.594"/>
	<circle style="fill:#386895;" cx="247.398" cy="332.731" r="8.594"/>
	<path style="fill:#386895;" d="M192.515,377.482c6.041,7.425,15.241,12.174,25.559,12.174s19.518-4.749,25.559-12.174H192.515z"/>
</g>
<path style="fill:#FF7F4F;" d="M409.686,103.041h-196.78c-9.378,0-16.98,7.602-16.98,16.98v97.89c0,9.378,7.602,16.98,16.98,16.98
	h15.982v37.224c0,7.273,8.794,10.916,13.938,5.773l42.998-42.998h123.861c9.378,0,16.98-7.602,16.98-16.98v-97.89
	C426.667,110.644,419.064,103.041,409.686,103.041z"/>
<path style="fill:#FF5419;" d="M409.686,103.04H307.143v131.851h102.543c9.378,0,16.98-7.602,16.98-16.98v-97.889
	C426.667,110.642,419.064,103.04,409.686,103.04z"/>
<g>
	<rect x="228.883" y="143.274" style="fill:#366695;" width="164.823" height="10.343"/>
	<rect x="228.883" y="176.235" style="fill:#366695;" width="164.823" height="10.343"/>
</g>
<g>
</g>
<g>
</g>
<g>
</g>
<g>
</g>
<g>
</g>
<g>
</g>
<g>
</g>
<g>
</g>
<g>
</g>
<g>
</g>
<g>
</g>
<g>
</g>
<g>
</g>
<g>
</g>
<g>
</g>
</svg>
