<?xml version="1.0" encoding="utf-8"?>
<!-- Generator: Adobe Illustrator 23.0.0, SVG Export Plug-In . SVG Version: 6.00 Build 0)  -->
<svg version="1.1" id="Layer_1" xmlns="http://www.w3.org/2000/svg" xmlns:xlink="http://www.w3.org/1999/xlink" x="0px" y="0px"
	 viewBox="0 0 823 823" style="enable-background:new 0 0 823 823;" xml:space="preserve">
<style type="text/css">
	.st0{opacity:0.63;fill:#CCE9FF;}
	.st1{fill:#0B4870;}
	.st2{fill:#0E538C;}
	.st3{fill:#F6F6F6;}
	.st4{fill:#FFBE55;}
	.st5{fill:#CCE9FF;}
	.st6{opacity:0.4;fill:#FFBE55;}
	.st7{opacity:0.4;fill:#CCE9FF;}
	.st8{fill:#D3D3D3;}
	.st9{fill:#F7F7F7;}
	.st10{opacity:8.000000e-02;fill:#0F0F0F;}
	.st11{fill:#FFFFFF;}
	.st12{fill:#FCD2B1;}
	.st13{fill:#FFBCC6;}
	.st14{fill:#FFE3CA;}
	.st15{opacity:0.22;fill:#FFFFFF;}
	.st16{fill:#2A94F4;}
</style>
<g>
	<path class="st0" d="M563.1,81.9C476,24.5,353.6,36.1,276.6,121.3c-42.1,46.6-59.2,110.7-102.9,156.3
		C124.5,329,65.7,378.9,43.4,448.9c-23.7,74.4-2.9,159.7,50.1,216.6c64.5,69.2,159.3,48.4,248.9,47.3
		c366.9-4.6,639.6-249.5,292.6-551.4C606,136,591.9,100.8,563.1,81.9z"/>
	<path class="st1" d="M727.5,121.6h-619C96.1,121.6,86,131.6,86,144v426.3h664V144C750,131.6,739.9,121.6,727.5,121.6z"/>
	<path class="st2" d="M726.7,131H109.3c-7.7,0-13.9,6.2-13.9,13.9V564h645.2V144.9C740.6,137.2,734.4,131,726.7,131z"/>
	<rect x="118.6" y="162" class="st1" width="598.8" height="387.1"/>
	<path class="st3" d="M421.4,148.4c0,1.9-1.5,3.4-3.4,3.4c-1.9,0-3.4-1.5-3.4-3.4c0-1.9,1.5-3.4,3.4-3.4
		C419.9,145.1,421.4,146.6,421.4,148.4z"/>
	<rect x="193.7" y="183.4" class="st4" width="60" height="10.6"/>
	<rect x="139.5" y="183.4" class="st5" width="24.7" height="10.6"/>
	<rect x="139.5" y="202.8" class="st5" width="24.7" height="10.6"/>
	<rect x="139.5" y="225.8" class="st5" width="24.7" height="10.6"/>
	<rect x="139.5" y="248.7" class="st5" width="24.7" height="10.6"/>
	<rect x="139.5" y="271.7" class="st5" width="24.7" height="10.6"/>
	<rect x="139.5" y="294.6" class="st5" width="24.7" height="10.6"/>
	<rect x="266.1" y="183.4" class="st5" width="201.3" height="10.6"/>
	<rect x="214.9" y="202.8" class="st4" width="60" height="10.6"/>
	<rect x="287.3" y="202.8" class="st5" width="201.3" height="10.6"/>
	<rect x="250.3" y="225.8" class="st4" width="60" height="10.6"/>
	<rect x="322.7" y="225.8" class="st5" width="201.3" height="10.6"/>
	<rect x="285.6" y="248.7" class="st4" width="60" height="10.6"/>
	<rect x="358" y="248.7" class="st5" width="201.3" height="10.6"/>
	<rect x="250.3" y="271.7" class="st4" width="60" height="10.6"/>
	<rect x="322.7" y="271.7" class="st5" width="307.3" height="10.6"/>
	<rect x="214.9" y="294.6" class="st4" width="60" height="10.6"/>
	<rect x="287.3" y="294.6" class="st5" width="130.7" height="10.6"/>
	<rect x="193.7" y="324.7" class="st6" width="60" height="10.6"/>
	<rect x="139.5" y="324.7" class="st7" width="24.7" height="10.6"/>
	<rect x="139.5" y="344.1" class="st7" width="24.7" height="10.6"/>
	<rect x="139.5" y="367.1" class="st7" width="24.7" height="10.6"/>
	<rect x="139.5" y="390" class="st7" width="24.7" height="10.6"/>
	<rect x="139.5" y="413" class="st7" width="24.7" height="10.6"/>
	<rect x="139.5" y="435.9" class="st7" width="24.7" height="10.6"/>
	<rect x="266.1" y="324.7" class="st7" width="201.3" height="10.6"/>
	<rect x="214.9" y="344.1" class="st6" width="60" height="10.6"/>
	<rect x="287.3" y="344.1" class="st7" width="201.3" height="10.6"/>
	<rect x="250.3" y="367.1" class="st6" width="60" height="10.6"/>
	<rect x="322.7" y="367.1" class="st7" width="201.3" height="10.6"/>
	<rect x="193.7" y="465.9" class="st6" width="60" height="10.6"/>
	<rect x="139.5" y="465.9" class="st7" width="24.7" height="10.6"/>
	<rect x="139.5" y="485.4" class="st7" width="24.7" height="10.6"/>
	<rect x="139.5" y="508.3" class="st7" width="24.7" height="10.6"/>
	<rect x="266.1" y="465.9" class="st7" width="201.3" height="10.6"/>
	<rect x="214.9" y="485.4" class="st6" width="60" height="10.6"/>
	<rect x="287.3" y="485.4" class="st7" width="201.3" height="10.6"/>
	<rect x="250.3" y="508.3" class="st6" width="60" height="10.6"/>
	<rect x="322.7" y="508.3" class="st7" width="201.3" height="10.6"/>
	<rect x="285.6" y="390" class="st6" width="60" height="10.6"/>
	<rect x="358" y="390" class="st7" width="307.3" height="10.6"/>
	<rect x="250.3" y="413" class="st6" width="60" height="10.6"/>
	<rect x="322.7" y="413" class="st7" width="201.3" height="10.6"/>
	<rect x="214.9" y="435.9" class="st6" width="60" height="10.6"/>
	<rect x="287.3" y="435.9" class="st7" width="201.3" height="10.6"/>
	<path class="st8" d="M794.1,562.7H41.9c-4.3,0-7.9,3.5-7.9,7.9v10.2c0,4.3,3.5,7.9,7.9,7.9h752.3c4.3,0,7.9-3.5,7.9-7.9v-10.2
		C802,566.2,798.5,562.7,794.1,562.7z"/>
	<path class="st9" d="M482.5,574H353.5c-1.7,0-3.1,1.4-3.1,3.1c0,1.7,1.4,3.1,3.1,3.1h129.1c1.7,0,3.1-1.4,3.1-3.1
		C485.6,575.4,484.2,574,482.5,574z"/>
	<path class="st1" d="M588.6,675l-0.1,16.1c0,0,2,10.3,3.7,21.3c1.6,11,2.9,22.7,1.2,25.4c-3.3,5.4-9.8,0-10.9-5.4
		c-1.1-5.4-2.7-39.1-2.7-39.1l-1.1-21.7L588.6,675z"/>
	<path class="st1" d="M605,672.8l-2.5,14.5c0,0-4.9,39.6-2.2,45.6c2.7,6,11.4,3.3,10.9-4.9c-0.5-8.1,1.6-36.9,1.6-36.9l4.9-17.4
		L605,672.8z"/>
	<path class="st1" d="M598.3,496.3l-1.2,17.8l46,22.2c8.3,4.5,12.3,14.2,9.6,23.2l-31.8,118.3l-15.8-5L619,564
		c1-6.7-3.6-12.9-10.3-14l-16.4-2.6l-17.4-17.8l20.2,18.1c4.9,4.4,7.3,10.9,6.4,17.4L588.6,675l-14.3,3.6l-6.4-108.1
		c-0.5-6.9-5.1-12.7-11.6-14.8l-28.3-9c-4.5-2.7-7.3-7.6-7.5-12.9l1.2-38.1L598.3,496.3z"/>
	<path class="st4" d="M518.7,536.2l7.6-147.8c0,0,31.4-1.9,40.8-1.9c5.1,0,13.8,2.4,20.7,4.6c6.5,2.1,11.8,1.9,15,7.9l51.5,98.8
		l-31.7,3L612,488.8l5.4-8.1l-19.3-45.4l3.8,82.5L518.7,536.2z"/>
	<path class="st10" d="M598.8,417.3l34.2,61.7l-10.6,12.5c0,0-4.3,0.9-8.4-0.5l-1.9-2.2l5.4-8.1l-19.3-45.4L598.8,417.3z"/>
	<path class="st11" d="M568.4,431.2c-10.4,0-29.4-27.1-29.4-37.5c0-2.1,0.4-4.1,1-6c9.7-0.5,21.8-1.1,27.1-1.1
		c2.3,0,5.3,0.5,8.6,1.2c0.6,1.9,1,3.8,1,5.9C576.6,404.1,578.8,431.2,568.4,431.2z"/>
	<polygon class="st10" points="522.5,414 518.7,537.1 569.5,524.9 	"/>
	<path class="st12" d="M570.2,371.4c-0.9,1.8-7.1,26-7.1,26s-2.2,4-7.5,3.5c-5.3-0.4-7.5-7.9-7.5-7.9l9.3-30.4L570.2,371.4z"/>
	<path class="st13" d="M537.6,356.5c0,16.7,17.7,35.2,34.4,35.2c16.7,0,26-18.5,26-35.2c0-16.7-13.5-30.2-30.2-30.2
		C551.1,326.2,537.6,339.8,537.6,356.5z"/>
	<ellipse transform="matrix(0.987 -0.1609 0.1609 0.987 -50.352 96.1689)" class="st14" cx="568.5" cy="358.9" rx="34" ry="34"/>
	<path class="st14" d="M562.1,522c1.3-0.4,12.5-5.9,20.4-5.9c7.9,0,17.6,8.4,17.6,8.4s1.3,4.4-4,3.5c-5.3-0.9,0.7,3.3,0.7,3.3
		s-0.3,0.2-6.5,1.1c-6.2,0.9-30.2-0.4-30.2-0.4L562.1,522z"/>
	<path class="st4" d="M526.3,388.5l-4.3,97.2l40,36.2l-1.9,10.2L503.8,502c-5.4-2.9-8.5-8.9-7.7-15l10.3-74.4
		c0.8-9.3,6.5-17.5,14.8-21.6L526.3,388.5z"/>
	<path class="st4" d="M558,540.4h101.8v-7.5H558c-2.1,0-3.7,1.7-3.7,3.7l0,0C554.2,538.7,555.9,540.4,558,540.4z"/>
	<path class="st4" d="M585.9,540.4h98.2c4.3,0,8.1-2.9,9.3-7.1l17.3-65.3c1.6-6.1-3-12-9.3-12h-85.7c-4.3,0-8.1,2.9-9.3,7.1
		L585.9,540.4z"/>
	<path class="st15" d="M585.9,540.4h98.2c4.3,0,8.1-2.9,9.3-7.1l17.3-65.3c1.6-6.1-3-12-9.3-12h-85.7c-4.3,0-8.1,2.9-9.3,7.1
		L585.9,540.4z"/>
	<path class="st11" d="M643.7,504c-1.1,4.3,1.6,7.7,6,7.7c4.4,0,8.8-3.5,9.9-7.7c1.1-4.3-1.6-7.7-6-7.7
		C649.2,496.2,644.8,499.7,643.7,504z"/>
	<path class="st16" d="M568.5,324.9c17.5,0,31.8,13.2,33.8,30.1c-5.9,4.4-13.6,6.3-20.9,5.1c-8.6-1.5-16.3-7.4-19.9-15.3
		c0.3,3.8,0.5,7.6-0.1,11.3c-0.6,3.7-2.2,7.4-5.2,9.8c-0.2-2.6-0.5-5.4-1.8-7.7c-1.4-2.3-4.3-3.9-6.7-2.9c-1.8,0.7-2.9,2.5-3.2,4.4
		c-0.3,1.9,0.2,3.8,0.9,5.6c1.1,2.8,2.7,5.4,4.7,7.5c-4,0.6-8.3,1.1-12.3,0.7c-2.1-4.5-3.4-9.4-3.4-14.7
		C534.4,340.1,549.7,324.9,568.5,324.9z"/>
	<path class="st14" d="M539.2,364.5c0,5.7,4.6,10.3,10.3,10.3c5.7,0,10.3-4.6,10.3-10.3s-4.6-10.3-10.3-10.3
		C543.9,354.2,539.2,358.8,539.2,364.5z"/>
	<polygon class="st14" points="605,672.8 603.2,683.7 614,687.1 617,676.4 	"/>
	<polygon class="st14" points="588.5,687.1 579.5,688.8 579,677.4 588.6,675 	"/>
	<circle class="st16" cx="549.5" cy="325.4" r="15.2"/>
</g>
</svg>
