<?xml version="1.0" encoding="iso-8859-1"?>
<!-- Generator: Adobe Illustrator 19.0.0, SVG Export Plug-In . SVG Version: 6.00 Build 0)  -->
<svg version="1.1" id="Layer_1" xmlns="http://www.w3.org/2000/svg" xmlns:xlink="http://www.w3.org/1999/xlink" x="0px" y="0px"
	 viewBox="0 0 512 512" style="enable-background:new 0 0 512 512;" xml:space="preserve">
<g>
	<rect x="202.549" y="301.776" style="fill:#C7E7EB;" width="16.879" height="165.213"/>
	<rect x="292.571" y="301.776" style="fill:#C7E7EB;" width="16.879" height="165.213"/>
	<path style="fill:#C7E7EB;" d="M436.044,436.044h-45.011c-4.662,0-8.44-3.778-8.44-8.44V301.771h16.879v117.394h36.571V436.044z"/>
	<path style="fill:#C7E7EB;" d="M120.967,436.044H75.956v-16.879h36.571V301.771h16.879v125.834
		C129.407,432.266,125.629,436.044,120.967,436.044z"/>
</g>
<g>
	<circle style="fill:#367596;" cx="210.989" cy="483.868" r="28.132"/>
	<circle style="fill:#367596;" cx="301.011" cy="483.868" r="28.132"/>
	<circle style="fill:#367596;" cx="452.923" cy="427.604" r="28.132"/>
</g>
<path style="fill:#25BBCC;" d="M448.073,149.932C447.33,66.999,379.87,0,296.769,0c-0.957,0-1.913,0.011-2.869,0.023
	l112.617,312.995h22.866c45.63,0,82.618-36.988,82.618-82.618C512,191.207,484.69,158.405,448.073,149.932z"/>
<path style="fill:#50D1DD;" d="M422.743,149.932c-0.63-81.965-57.85-148.379-128.844-149.909
	c-55.859,1.047-104.313,32.352-129.654,78.195c-5.424-2.341-11.219-3.961-17.284-4.749c-2.712-0.349-5.48-0.529-8.293-0.529
	c-32.757,0-59.786,24.418-63.927,56.039C32.127,137.43,0,175.014,0,220.104c0,51.324,41.601,92.914,92.914,92.914h21.502
	c0.002,0,292.101,0,292.101,0c39.61,0,71.725-36.988,71.725-82.618C478.242,191.207,454.532,158.405,422.743,149.932z"/>
<circle style="fill:#367596;" cx="59.077" cy="427.604" r="28.132"/>
<g>
</g>
<g>
</g>
<g>
</g>
<g>
</g>
<g>
</g>
<g>
</g>
<g>
</g>
<g>
</g>
<g>
</g>
<g>
</g>
<g>
</g>
<g>
</g>
<g>
</g>
<g>
</g>
<g>
</g>
</svg>
