<svg height="480pt" viewBox="0 0 480 480.03676" width="480pt" xmlns="http://www.w3.org/2000/svg"><path d="m394.019531 129.230469c-3.140625 0-5.988281-1.832031-7.289062-4.691407-6.285157-13.828124-17.371094-24.910156-31.199219-31.199218-2.667969-1.140625-4.507812-3.636719-4.808594-6.523438-.300781-2.882812.980469-5.707031 3.355469-7.375 2.375-1.667968 5.464844-1.921875 8.078125-.660156 17.355469 7.882812 31.265625 21.792969 39.148438 39.152344 1.128906 2.472656.917968 5.351562-.550782 7.636718-1.46875 2.289063-4 3.671876-6.71875 3.675782zm0 0" fill="#ffcc5c"/><path d="m433.441406 122.269531c-3.488281-.003906-6.574218-2.269531-7.621094-5.601562-9.449218-29.71875-32.730468-53-62.449218-62.445313-4.03125-1.460937-6.195313-5.835937-4.910156-9.925781 1.289062-4.089844 5.570312-6.4375 9.710937-5.324219 34.6875 11.007813 61.863281 38.183594 72.871094 72.871094 1.328125 4.210938-1.007813 8.699219-5.214844 10.03125-.769531.257812-1.574219.390625-2.386719.394531zm0 0" fill="#f7931e"/><path d="m472.019531 115.484375c-3.6875 0-6.894531-2.523437-7.769531-6.105469-11.21875-46.257812-47.339844-82.378906-93.597656-93.597656-4.296875-1.050781-6.925782-5.382812-5.878906-9.675781 1.050781-4.296875 5.382812-6.925781 9.675781-5.875 52.058593 12.648437 92.699219 53.292969 105.34375 105.351562 1.050781 4.292969-1.578125 8.621094-5.871094 9.671875-.621094.152344-1.261719.230469-1.902344.230469zm0 0" fill="#f15a24"/><path d="m16.019531 152.035156h304v280h-304zm0 0" fill="#3498db"/><path d="m281.457031 320.253906c-8.203125-10.914062-21.347656-16.960937-34.972656-16.097656l1.375-6.398438c.519531-2.371093-.0625-4.851562-1.585937-6.742187-1.527344-1.890625-3.828126-2.988281-6.253907-2.980469h-152c-2.421875-.003906-4.714843 1.085938-6.234375 2.964844-1.523437 1.882812-2.113281 4.351562-1.605468 6.714844l24 112c.792968 3.695312 4.0625 6.332031 7.839843 6.320312h104c3.777344.011719 7.046875-2.625 7.839844-6.320312l1.960937-9.148438c12.578126-.636718 24.71875-4.839844 35-12.121094 25.316407-17.746093 34.558594-48.328124 20.636719-68.191406zm-29.773437 55.0625c-6.652344 4.734375-14.328125 7.832032-22.402344 9.046875l13.722656-64.070312c9.476563-1.832031 19.195313 1.675781 25.320313 9.136719 8.886719 12.640624 1.414062 33.222656-16.640625 45.886718zm0 0" fill="#e6e6e6"/><path d="m16.019531 416.035156h304c8.835938 0 16 7.164063 16 16v32c0 8.839844-7.164062 16-16 16h-304c-8.835937 0-15.9999998-7.160156-15.9999998-16v-32c0-8.835937 7.1640628-16 15.9999998-16zm0 0" fill="#2980b9"/><path d="m336.019531 32.035156v114.640625c.039063 7.886719-5.722656 14.597657-13.519531 15.761719-14.640625 2.238281-54.800781 8-98.480469 11.277344-5.28125.402344-10.640625.800781-16 1.042968-13.441406.800782-26.960937 1.277344-40 1.277344-13.039062 0-26.5625-.476562-40-1.277344-5.359375-.242187-10.722656-.640624-16-1.042968-43.679687-3.277344-83.839843-9.039063-98.480469-11.277344-7.796874-1.164062-13.5585932-7.875-13.5195308-15.761719v-114.640625c0-17.671875 14.3242188-31.9999998 31.9999998-31.9999998h272c17.671875 0 32 14.3281248 32 31.9999998zm0 0" fill="#2980b9"/><path d="m192.019531 232.035156h48v16h-48zm0 0" fill="#666"/><g fill="#333"><path d="m200.019531 216.035156v40c-.027343 8.828125-7.175781 15.976563-16 16h-32c-8.828125-.023437-15.972656-7.171875-16-16v-40zm0 0"/><path d="m224.019531 173.714844v18.320312c-.039062 13.238282-10.761719 23.960938-24 24h-64c-13.238281-.039062-23.960937-10.761718-24-24v-18.320312c5.277344.402344 10.640625.800781 16 1.042968 13.4375.800782 26.960938 1.277344 40 1.277344 13.039063 0 26.558594-.476562 40-1.277344 5.359375-.242187 10.71875-.640624 16-1.042968zm0 0"/><path d="m80.019531 48.035156c-17.675781 0-32 14.328125-32 32 0 17.675782 14.324219 32 32 32 17.671875 0 32-14.324218 32-32 0-17.671875-14.328125-32-32-32zm0 48c-8.835937 0-16-7.160156-16-16 0-8.835937 7.164063-16 16-16 8.835938 0 16 7.164063 16 16-.027343 8.828125-7.175781 15.976563-16 16zm0 0"/></g><path d="m96.019531 80.035156c0 8.839844-7.164062 16-16 16-8.835937 0-16-7.160156-16-16 0-8.835937 7.164063-16 16-16 8.835938 0 16 7.164063 16 16zm0 0" fill="#1d5c7f"/><path d="m168.019531 48.035156c-17.675781 0-32 14.328125-32 32 0 17.675782 14.324219 32 32 32 17.671875 0 32-14.324218 32-32 0-17.671875-14.328125-32-32-32zm0 48c-8.835937 0-16-7.160156-16-16 0-8.835937 7.164063-16 16-16 8.835938 0 16 7.164063 16 16-.027343 8.828125-7.175781 15.976563-16 16zm0 0" fill="#333"/><path d="m184.019531 80.035156c0 8.839844-7.164062 16-16 16-8.835937 0-16-7.160156-16-16 0-8.835937 7.164063-16 16-16 8.835938 0 16 7.164063 16 16zm0 0" fill="#1d5c7f"/><path d="m256.019531 48.035156c-17.675781 0-32 14.328125-32 32 0 17.675782 14.324219 32 32 32 17.671875 0 32-14.324218 32-32 0-17.671875-14.328125-32-32-32zm0 48c-8.835937 0-16-7.160156-16-16 0-8.835937 7.164063-16 16-16 8.835938 0 16 7.164063 16 16-.027343 8.828125-7.175781 15.976563-16 16zm0 0" fill="#333"/><path d="m272.019531 80.035156c0 8.839844-7.164062 16-16 16-8.835937 0-16-7.160156-16-16 0-8.835937 7.164063-16 16-16 8.835938 0 16 7.164063 16 16zm0 0" fill="#1d5c7f"/><path d="m240.019531 224.035156h48c8.835938 0 16 7.164063 16 16 0 8.839844-7.164062 16-16 16h-48c-8.835937 0-16-7.160156-16-16 0-8.835937 7.164063-16 16-16zm0 0" fill="#333"/></svg>